<svg width="512" height="512" xmlns="http://www.w3.org/2000/svg">
  <g stroke="null">
    <path fill="#302927" d="M509.648 256C509.648 115.913 396.087 2.352 256 2.352S2.352 115.913 2.352 256 115.913 509.648 256 509.648 509.648 396.087 509.648 256zm0 0"/>
    <path fill="#DCDDDE" d="M113.643 243.43h56.99v141.933h-56.99V243.43zm0 0"/>
    <path fill="#666" d="M174.687 185.785c0 17.945-14.555 32.495-32.5 32.495s-32.496-14.55-32.496-32.495c0-17.946 14.55-32.5 32.496-32.5 17.945 0 32.5 14.554 32.5 32.5zm0 0"/>
    <path fill="#DCDDDE" d="M374.512 250.73c20.3-11.505 29.102-31.149 29.102-50.399 0-21.394-7.754-37.896-22.3-48.742-14.253-11.152-34.85-16.9-60.59-16.9h-91.992v250.27h82.236c42.297 0 58.845-2.349 81.842-21.645 15.247-12.55 23.051-34.493 23.051-54.494-.05-10.447-1.053-43.896-41.349-58.09zm-81.837-59.944h22.644c5.102 0 11.799 0 17.198 2.396 5.45 2.35 9.848 7.15 9.848 16.598 0 9.75-4.397 14.849-10.145 17.597-5.702 2.35-12.5 2.35-16.9 2.35h-22.645v-38.941zm49.044 134.93c-6.751 3.105-14.9 3.105-18.948 3.105h-30.096v-45.645h30.096c5.098 0 13.2 0 19.648 2.698 6.747 2.697 12.147 8.097 12.147 18.947 0 11.799-5.752 17.95-12.847 20.895zm0 0"/>
  </g>
</svg>
